<?xml version="1.0" encoding="UTF-8" standalone="no"?>
<svg
   version="1.1"
   id="Layer_1"
   x="0"
   y="0"
   viewBox="0 0 83.849548 41.518794"
   xml:space="preserve"
   width="83.849548"
   height="41.518791"
   xmlns="http://www.w3.org/2000/svg"
   xmlns:svg="http://www.w3.org/2000/svg"><defs
   id="defs16" />
  <style
   id="style1">
    .st0{fill:#fff}
  </style>
  
  <linearGradient
   id="SVGID_1_"
   gradientUnits="userSpaceOnUse"
   x1="-0.212"
   y1="282.879"
   x2="101.724"
   y2="341.73199"
   gradientTransform="matrix(1,0,0,-1,0,371.896)">
    <stop
   offset="0"
   stop-color="#10e7ff"
   id="stop1" />
    <stop
   offset=".103"
   stop-color="#33d5ff"
   id="stop2" />
    <stop
   offset=".255"
   stop-color="#60bdff"
   id="stop3" />
    <stop
   offset=".408"
   stop-color="#86aaff"
   id="stop4" />
    <stop
   offset=".56"
   stop-color="#a39aff"
   id="stop5" />
    <stop
   offset=".71"
   stop-color="#b790ff"
   id="stop6" />
    <stop
   offset=".858"
   stop-color="#c489ff"
   id="stop7" />
    <stop
   offset="1"
   stop-color="#c887ff"
   id="stop8" />
  </linearGradient>
  
  <linearGradient
   id="SVGID_2_"
   gradientUnits="userSpaceOnUse"
   x1="31.374001"
   y1="303.384"
   x2="81.931999"
   y2="332.57401"
   gradientTransform="matrix(1,0,0,-1,130.5037,372.23674)">
    <stop
   offset="0"
   stop-color="#10e7ff"
   id="stop9" />
    <stop
   offset=".103"
   stop-color="#33d5ff"
   id="stop10" />
    <stop
   offset=".255"
   stop-color="#60bdff"
   id="stop11" />
    <stop
   offset=".408"
   stop-color="#86aaff"
   id="stop12" />
    <stop
   offset=".56"
   stop-color="#a39aff"
   id="stop13" />
    <stop
   offset=".71"
   stop-color="#b790ff"
   id="stop14" />
    <stop
   offset=".858"
   stop-color="#c489ff"
   id="stop15" />
    <stop
   offset="1"
   stop-color="#c887ff"
   id="stop16" />
  </linearGradient>
  <path
   id="path26"
   style="fill:#00aef4;fill-opacity:1;stroke-width:1.00061"
   d="M 83.849547,41.516948 59.871883,0.01879296 47.134615,0 70.667181,41.518793 Z" /><path
   id="path22"
   style="fill:#00cbf4;fill-opacity:1;stroke-width:1.00061"
   d="m 35.182393,41.518793 17.719923,-31.3 L 47.150086,0.01879296 23.56831,41.518793 Z m 35.543097,0 L 47.143714,0.01879296 41.400417,10.218793 l 17.71099,31.3 z m 0,0 L 47.151526,0.01879296 41.41148,10.218793 l 17.699927,31.3 z m -35.543097,0 17.70428,-31.3 L 47.150086,0.01879296 23.56831,41.518793 Z" /><path
   id="path16-9-1"
   style="fill:#17da7c;fill-opacity:1;stroke-width:1.00061"
   d="M 35.543096,0.01879296 17.854461,31.318793 l 5.728755,10.2 23.573963,-41.50000004 z m -35.543096,0 23.581775,41.50000004 5.744408,-10.2 -17.7121,-31.30000004 z m 0,0 23.581775,41.50000004 5.736587,-10.2 L 11.614083,0.01879296 Z m 35.543096,0 -17.688635,31.30000004 5.728755,10.2 23.573963,-41.50000004 z" />
</svg>
