<?xml version="1.0" standalone="no"?>
<!DOCTYPE svg PUBLIC "-//W3C//DTD SVG 20010904//EN"
 "http://www.w3.org/TR/2001/REC-SVG-20010904/DTD/svg10.dtd">
<svg version="1.0" xmlns="http://www.w3.org/2000/svg"
 width="837.000000pt" height="837.000000pt" viewBox="0 0 837.000000 837.000000"
 preserveAspectRatio="xMidYMid meet">
<metadata>
Created by potrace 1.14, written by Peter Selinger 2001-2017
</metadata>
<g transform="translate(0.000000,837.000000) scale(0.100000,-0.100000)"
fill="#000000" stroke="none">
<path d="M29 6207 c16 -29 52 -92 80 -140 28 -49 51 -91 51 -93 0 -3 16 -30
35 -60 19 -30 35 -56 35 -58 0 -2 61 -111 136 -242 75 -132 166 -293 203 -359
38 -66 135 -237 216 -380 82 -143 159 -280 173 -305 14 -25 78 -137 142 -250
64 -113 128 -225 142 -250 14 -25 81 -144 150 -265 203 -357 261 -459 275
-485 26 -47 59 -105 315 -555 264 -464 284 -499 326 -575 14 -25 30 -53 36
-63 10 -16 47 -17 590 -15 l580 3 53 90 c29 50 56 97 60 105 7 15 155 279 467
829 91 161 166 297 166 302 0 5 5 9 10 9 6 0 10 4 10 10 0 5 38 76 84 157 46
82 93 165 105 186 11 20 31 54 42 75 91 161 192 338 194 340 1 1 29 -44 60
-100 32 -57 113 -200 180 -318 313 -551 505 -893 505 -901 0 -5 5 -9 10 -9 6
0 10 -5 10 -11 0 -6 18 -42 40 -80 22 -38 57 -99 79 -136 36 -64 53 -94 122
-218 15 -27 63 -113 107 -190 l80 -140 1236 -3 1236 -2 -19 32 c-10 18 -60
105 -111 193 -51 88 -104 180 -118 204 -14 25 -38 68 -55 95 -16 28 -39 67
-50 86 -23 41 -59 104 -190 330 -156 270 -398 692 -425 740 -14 25 -39 68 -56
95 -17 28 -37 61 -44 75 -6 14 -16 32 -22 40 -5 8 -32 53 -59 100 -26 47 -142
247 -257 445 -114 198 -224 389 -243 423 -20 35 -41 71 -46 80 -6 10 -37 64
-70 122 -33 57 -64 112 -70 122 -5 9 -31 54 -57 99 -27 45 -48 86 -48 90 0 5
-4 9 -10 9 -5 0 -10 4 -10 9 0 8 -121 223 -199 351 -11 19 -25 44 -31 55 -5
11 -23 43 -40 70 -16 28 -33 57 -37 65 -3 8 -21 38 -38 65 -18 28 -40 66 -49
85 -9 19 -23 43 -30 53 -13 16 -80 17 -1226 15 l-1212 -3 -57 -100 c-85 -148
-190 -334 -219 -385 -14 -25 -53 -94 -87 -155 -35 -60 -75 -132 -90 -160 -36
-64 -37 -65 -194 -345 -73 -129 -136 -239 -140 -245 -5 -5 -30 -50 -56 -100
-26 -49 -56 -102 -66 -117 -11 -14 -19 -29 -19 -32 0 -3 -13 -27 -29 -53 -15
-27 -74 -130 -131 -231 -83 -148 -105 -180 -116 -171 -8 6 -14 15 -14 19 0 6
-173 319 -200 360 -5 8 -29 51 -53 95 -84 151 -100 180 -124 217 -12 21 -23
39 -23 41 0 2 -23 44 -51 93 -29 49 -63 109 -77 134 -89 158 -433 768 -529
937 l-115 203 -579 -1 -579 -1 29 -51z"/>
</g>
</svg>
